<svg width="27" height="30" viewBox="0 0 27 30" fill="none" xmlns="http://www.w3.org/2000/svg">
<path d="M24.1071 30H2.89286C1.29516 30 0 28.5609 0 26.7857V3.21429C0 1.43906 1.29516 0 2.89286 0H24.1071C25.7048 0 27 1.43906 27 3.21429V26.7857C27 28.5609 25.7048 30 24.1071 30ZM11.7712 23.4335L22.8604 11.1121C23.237 10.6937 23.237 10.0153 22.8604 9.59692L21.4968 8.08172C21.1202 7.66333 20.5096 7.66326 20.133 8.08172L11.0893 18.1302L6.86698 13.4388C6.49043 13.0204 5.87985 13.0204 5.50324 13.4388L4.13956 14.954C3.763 15.3724 3.763 16.0508 4.13956 16.4692L10.4074 23.4335C10.784 23.852 11.3945 23.852 11.7712 23.4335Z" fill="#3E53C0"/>
</svg>
