<svg width="30" height="28" viewBox="0 0 30 28" fill="none" xmlns="http://www.w3.org/2000/svg">
<path d="M10.5 13.562C13.8141 13.562 16.5 10.5265 16.5 6.78101C16.5 3.03556 13.8141 0 10.5 0C7.18593 0 4.5 3.03556 4.5 6.78101C4.5 10.5265 7.18593 13.562 10.5 13.562ZM14.7 15.2573H13.9172C12.8766 15.7976 11.7187 16.1049 10.5 16.1049C9.28125 16.1049 8.12812 15.7976 7.08281 15.2573H6.3C2.82187 15.2573 0 18.4465 0 22.3773V24.5811C0 25.985 1.00781 27.124 2.25 27.124H18.75C19.9922 27.124 21 25.985 21 24.5811V22.3773C21 18.4465 18.1781 15.2573 14.7 15.2573ZM29.8406 8.45507L28.5375 6.96642C28.3219 6.71743 27.9703 6.71743 27.75 6.96113L22.8375 12.4707L20.7047 10.0444C20.4891 9.79537 20.1375 9.79537 19.9172 10.0391L18.6 11.5171C18.3797 11.7608 18.3797 12.1581 18.5953 12.4071L22.425 16.7671C22.6406 17.0161 22.9922 17.0161 23.2125 16.7724L29.8359 9.34507C30.0515 9.09608 30.0562 8.69876 29.8406 8.45507Z" fill="#3300FF"/>
</svg>
