<svg width="25" height="25" viewBox="0 0 25 25" fill="none" xmlns="http://www.w3.org/2000/svg">
<path d="M22.6562 0H2.34375C1.0498 0 0 1.19978 0 2.67857V22.3214C0 23.8002 1.0498 25 2.34375 25H22.6562C23.9502 25 25 23.8002 25 22.3214V2.67857C25 1.19978 23.9502 0 22.6562 0ZM18.5742 16.2109C18.8086 16.4788 18.8086 16.9141 18.5742 17.1819L16.5967 19.442C16.3623 19.7098 15.9814 19.7098 15.7471 19.442L12.5 15.6975L9.25293 19.442C9.01855 19.7098 8.6377 19.7098 8.40332 19.442L6.42578 17.1819C6.19141 16.9141 6.19141 16.4788 6.42578 16.2109L9.70215 12.5L6.42578 8.78906C6.19141 8.5212 6.19141 8.08594 6.42578 7.81808L8.40332 5.55804C8.6377 5.29018 9.01855 5.29018 9.25293 5.55804L12.5 9.30245L15.7471 5.55804C15.9814 5.29018 16.3623 5.29018 16.5967 5.55804L18.5742 7.81808C18.8086 8.08594 18.8086 8.5212 18.5742 8.78906L15.2979 12.5L18.5742 16.2109Z" fill="#4B3FCD"/>
</svg>
