<svg width="30" height="28" viewBox="0 0 30 28" fill="none" xmlns="http://www.w3.org/2000/svg">
<path d="M27.6407 12.7144L29.7785 10.2987C30.0738 9.9649 30.0738 9.42454 29.7785 9.09079L28.7096 7.88292C28.4143 7.54917 27.9361 7.54917 27.6407 7.88292L25.503 10.2987L23.3652 7.88292C23.0699 7.54917 22.5917 7.54917 22.2964 7.88292L21.2275 9.09079C20.9321 9.42454 20.9321 9.9649 21.2275 10.2987L23.3652 12.7144L21.2275 15.1301C20.9321 15.4639 20.9321 16.0042 21.2275 16.338L22.2964 17.5459C22.5917 17.8796 23.0699 17.8796 23.3652 17.5459L25.503 15.1301L27.6407 17.5459C27.9361 17.8796 28.4143 17.8796 28.7096 17.5459L29.7785 16.338C30.0738 16.0042 30.0738 15.4639 29.7785 15.1301L27.6407 12.7144ZM10.5012 13.562C13.8157 13.562 16.5019 10.5265 16.5019 6.78101C16.5019 3.03556 13.8157 0 10.5012 0C7.18678 0 4.50053 3.03556 4.50053 6.78101C4.50053 10.5265 7.18678 13.562 10.5012 13.562ZM14.7017 15.2573H13.9188C12.8781 15.7976 11.7201 16.1049 10.5012 16.1049C9.28234 16.1049 8.12908 15.7976 7.08364 15.2573H6.30074C2.82221 15.2573 0 18.4465 0 22.3773V24.5811C0 25.985 1.00793 27.124 2.25026 27.124H18.7522C19.9945 27.124 21.0025 25.985 21.0025 24.5811V22.3773C21.0025 18.4465 18.1803 15.2573 14.7017 15.2573Z" fill="#2400FF"/>
</svg>
