<svg width="35" height="35" viewBox="0 0 35 35" fill="none" xmlns="http://www.w3.org/2000/svg">
<path d="M24.0246 7.88641L27.1133 10.9737L24.0246 7.88641ZM26.0108 5.16662L17.6589 13.5185C17.2274 13.9494 16.9331 14.4985 16.8131 15.0964L16.0417 18.9581L19.9033 18.1852C20.5012 18.0656 21.0496 17.7725 21.4812 17.3408L29.8331 8.98891C30.0841 8.73794 30.2832 8.43999 30.419 8.11207C30.5548 7.78416 30.6247 7.4327 30.6247 7.07777C30.6247 6.72284 30.5548 6.37138 30.419 6.04346C30.2832 5.71555 30.0841 5.4176 29.8331 5.16662C29.5821 4.91565 29.2842 4.71656 28.9563 4.58074C28.6284 4.44491 28.2769 4.375 27.922 4.375C27.567 4.375 27.2156 4.44491 26.8877 4.58074C26.5597 4.71656 26.2618 4.91565 26.0108 5.16662V5.16662Z" stroke="black" stroke-width="2" stroke-linecap="round" stroke-linejoin="round"/>
<path d="M27.7083 21.8753V26.2503C27.7083 27.0239 27.401 27.7657 26.8541 28.3127C26.3071 28.8597 25.5652 29.167 24.7917 29.167H8.74999C7.97645 29.167 7.23458 28.8597 6.6876 28.3127C6.14062 27.7657 5.83333 27.0239 5.83333 26.2503V10.2087C5.83333 9.43511 6.14062 8.69325 6.6876 8.14626C7.23458 7.59928 7.97645 7.29199 8.74999 7.29199H13.125" stroke="black" stroke-width="2" stroke-linecap="round" stroke-linejoin="round"/>
</svg>
