<svg width="8" height="30" viewBox="0 0 8 30" fill="none" xmlns="http://www.w3.org/2000/svg">
<path d="M7.8125 25.3125C7.8125 27.8972 6.06016 30 3.90625 30C1.75234 30 0 27.8972 0 25.3125C0 22.7278 1.75234 20.625 3.90625 20.625C6.06016 20.625 7.8125 22.7278 7.8125 25.3125ZM0.452148 1.4765L1.11621 17.414C1.14741 18.1624 1.66216 18.75 2.28662 18.75H5.52588C6.15034 18.75 6.66509 18.1624 6.69629 17.414L7.36035 1.4765C7.3938 0.673242 6.86016 0 6.18994 0H1.62256C0.952344 0 0.418701 0.673242 0.452148 1.4765Z" fill="#3A06A9"/>
</svg>
