<svg width="35" height="35" viewBox="0 0 35 35" fill="none" xmlns="http://www.w3.org/2000/svg">
<path fill-rule="evenodd" clip-rule="evenodd" d="M17.5 1.45801C8.6406 1.45801 1.45831 8.6403 1.45831 17.4997C1.45831 26.3591 8.6406 33.5413 17.5 33.5413C26.3594 33.5413 33.5416 26.3591 33.5416 17.4997C33.5416 8.6403 26.3594 1.45801 17.5 1.45801ZM22.906 14.1557C23.1717 13.8807 23.3187 13.5123 23.3153 13.1299C23.312 12.7476 23.1586 12.3818 22.8883 12.1114C22.6179 11.841 22.2521 11.6876 21.8697 11.6843C21.4874 11.681 21.119 11.828 20.8439 12.0936L17.5 15.4376L14.156 12.0936C14.0215 11.9543 13.8606 11.8432 13.6827 11.7668C13.5047 11.6904 13.3134 11.6502 13.1197 11.6485C12.9261 11.6468 12.7341 11.6837 12.5548 11.757C12.3756 11.8303 12.2128 11.9386 12.0759 12.0756C11.9389 12.2125 11.8306 12.3753 11.7573 12.5545C11.684 12.7338 11.6471 12.9258 11.6488 13.1194C11.6505 13.3131 11.6907 13.5044 11.7671 13.6823C11.8436 13.8603 11.9547 14.0212 12.0939 14.1557L15.4379 17.4997L12.0939 20.8436C11.9547 20.9782 11.8436 21.1391 11.7671 21.317C11.6907 21.4949 11.6505 21.6863 11.6488 21.8799C11.6471 22.0736 11.684 22.2656 11.7573 22.4448C11.8306 22.624 11.9389 22.7869 12.0759 22.9238C12.2128 23.0607 12.3756 23.169 12.5548 23.2423C12.7341 23.3157 12.9261 23.3526 13.1197 23.3509C13.3134 23.3492 13.5047 23.309 13.6827 23.2325C13.8606 23.1561 14.0215 23.045 14.156 22.9057L17.5 19.5618L20.8439 22.9057C21.119 23.1714 21.4874 23.3184 21.8697 23.315C22.2521 23.3117 22.6179 23.1583 22.8883 22.888C23.1586 22.6176 23.312 22.2518 23.3153 21.8694C23.3187 21.4871 23.1717 21.1187 22.906 20.8436L19.5621 17.4997L22.906 14.1557Z" fill="#C21818"/>
</svg>
