<svg width="30" height="30" viewBox="0 0 30 30" fill="none" xmlns="http://www.w3.org/2000/svg">
<path d="M30 27.9236L20.1696 17.9571C21.5089 16.0884 22.3058 13.791 22.3058 11.3128C22.3058 5.07703 17.3036 6.61962e-06 11.1563 6.61962e-06C5.00223 -0.0066913 0 5.07033 0 11.3061C0 17.5419 5.00223 22.6189 11.1496 22.6189C13.8147 22.6189 16.2589 21.6678 18.1808 20.0804L27.9576 30L30 27.9236ZM11.1496 20.0067C6.42188 20.0067 2.57143 16.1018 2.57143 11.3061C2.57143 6.51039 6.42188 2.6055 11.1496 2.6055C15.8772 2.6055 19.7277 6.51039 19.7277 11.3061C19.7277 16.1018 15.8839 20.0067 11.1496 20.0067Z" fill="#44367B"/>
</svg>
