<svg width="40" height="40" viewBox="0 0 40 40" fill="none" xmlns="http://www.w3.org/2000/svg">
<path d="M40 37.2315L26.8929 23.9428C28.6786 21.4512 29.7411 18.388 29.7411 15.0837C29.7411 6.76938 23.0714 8.82616e-06 14.875 8.82616e-06C6.66964 -0.00892174 0 6.76045 0 15.0748C0 23.3892 6.66964 30.1585 14.8661 30.1585C18.4196 30.1585 21.6786 28.8904 24.2411 26.7738L37.2768 40L40 37.2315ZM14.8661 26.6756C8.5625 26.6756 3.42857 21.4691 3.42857 15.0748C3.42857 8.68052 8.5625 3.474 14.8661 3.474C21.1696 3.474 26.3036 8.68052 26.3036 15.0748C26.3036 21.4691 21.1786 26.6756 14.8661 26.6756Z" fill="white"/>
</svg>
