<svg width="30" height="28" viewBox="0 0 30 28" fill="none" xmlns="http://www.w3.org/2000/svg">
<path d="M29.7078 24.2686L16.9813 13.1541C19.3157 12.2217 20.9985 9.7371 20.9985 6.78101C20.9985 3.03556 18.3126 0 14.9985 0C11.8532 0 9.30326 2.74419 9.05014 6.21945L2.13142 0.18012C1.8033 -0.105953 1.33455 -0.0423813 1.07674 0.328455L0.157994 1.66347C-0.0951299 2.0343 -0.0388802 2.56407 0.289243 2.85014L27.8704 26.9386C28.1985 27.2247 28.6672 27.1611 28.925 26.7903L29.8438 25.45C30.0969 25.0897 30.036 24.5547 29.7078 24.2686ZM4.4986 22.3773V24.5811C4.4986 25.985 5.5064 27.124 6.74858 27.124H23.1641L9.72044 15.3791C6.75796 15.9619 4.4986 18.8597 4.4986 22.3773Z" fill="#4B3FCD"/>
</svg>
