<svg width="60" height="65" viewBox="0 0 60 65" fill="none" xmlns="http://www.w3.org/2000/svg">
<path d="M43.3333 34.0476C34.1333 34.0476 26.6667 40.981 26.6667 49.5238C26.6667 58.0667 34.1333 65 43.3333 65C52.5333 65 60 58.0667 60 49.5238C60 40.981 52.5333 34.0476 43.3333 34.0476ZM48.8333 56.7976L41.6667 50.1429V40.2381H45V48.8738L51.1667 54.6L48.8333 56.7976ZM46.6667 6.19048H36.0667C34.6667 2.6 31 0 26.6667 0C22.3333 0 18.6667 2.6 17.2667 6.19048H6.66667C3 6.19048 0 8.97619 0 12.381V58.8095C0 62.2143 3 65 6.66667 65H27.0333C25.0612 63.2226 23.4569 61.1244 22.3 58.8095H6.66667V12.381H13.3333V21.6667H40V12.381H46.6667V28.1048C49.0333 28.4143 51.2667 29.0643 53.3333 29.9619V12.381C53.3333 8.97619 50.3333 6.19048 46.6667 6.19048ZM26.6667 12.381C24.8333 12.381 23.3333 10.9881 23.3333 9.28572C23.3333 7.58333 24.8333 6.19048 26.6667 6.19048C28.5 6.19048 30 7.58333 30 9.28572C30 10.9881 28.5 12.381 26.6667 12.381Z" fill="#350C77"/>
</svg>
