<svg width="30" height="28" viewBox="0 0 30 28" fill="none" xmlns="http://www.w3.org/2000/svg">
<path d="M29.5611 19.3321L25.328 14.5534C24.7655 13.9176 24.0014 13.5627 23.2045 13.5627H19.4871C18.6573 13.5627 17.987 14.3203 17.987 15.258V19.454C17.987 20.3546 18.3011 21.2129 18.8636 21.8486L23.0967 26.6273C23.6826 27.2896 24.6343 27.2896 25.2202 26.6273L29.5564 21.7268C30.1471 21.0645 30.1471 19.9943 29.5611 19.3321ZM20.9919 18.2195C20.3684 18.2195 19.8668 17.6527 19.8668 16.948C19.8668 16.2434 20.3684 15.6765 20.9919 15.6765C21.6153 15.6765 22.1169 16.2434 22.1169 16.948C22.1169 17.6474 21.6153 18.2195 20.9919 18.2195ZM10.5006 13.5574C13.8149 13.5574 16.501 10.5217 16.501 6.77604C16.501 3.03571 13.8149 0 10.5006 0C7.18636 0 4.50026 3.03571 4.50026 6.78134C4.50026 10.5217 7.18636 13.5574 10.5006 13.5574ZM16.4916 19.4487V15.5759C15.9197 15.3852 15.3243 15.2474 14.7009 15.2474H13.918C12.8773 15.7878 11.7194 16.0951 10.5006 16.0951C9.28179 16.0951 8.1286 15.7878 7.08323 15.2474H6.30037C2.82204 15.2527 0 18.4421 0 22.3731V24.577C0 25.981 1.00787 27.12 2.25013 27.12H18.7511C19.4777 27.12 20.1152 26.7227 20.5278 26.1187L17.8089 23.0459C16.9604 22.087 16.4916 20.8102 16.4916 19.4487Z" fill="#4B3FCD"/>
</svg>
