<svg width="30" height="24" viewBox="0 0 30 24" fill="none" xmlns="http://www.w3.org/2000/svg">
<path d="M9 11.6633C11.9016 11.6633 14.25 9.0547 14.25 5.83167C14.25 2.60863 11.9016 0 9 0C6.09844 0 3.75 2.60863 3.75 5.83167C3.75 9.0547 6.09844 11.6633 9 11.6633ZM12.6 13.3295H12.2109C11.2359 13.8502 10.1531 14.1626 9 14.1626C7.84688 14.1626 6.76875 13.8502 5.78906 13.3295H5.4C2.41875 13.3295 0 16.0163 0 19.3278V20.8274C0 22.2072 1.00781 23.3267 2.25 23.3267H15.75C16.9922 23.3267 18 22.2072 18 20.8274V19.3278C18 16.0163 15.5812 13.3295 12.6 13.3295ZM22.5 11.6633C24.9844 11.6633 27 9.42439 27 6.66476C27 3.90513 24.9844 1.66619 22.5 1.66619C20.0156 1.66619 18 3.90513 18 6.66476C18 9.42439 20.0156 11.6633 22.5 11.6633ZM24.75 13.3295H24.5719C23.9203 13.5794 23.2313 13.7461 22.5 13.7461C21.7687 13.7461 21.0797 13.5794 20.4281 13.3295H20.25C19.2938 13.3295 18.4125 13.6367 17.6391 14.1314C18.7828 15.5008 19.5 17.318 19.5 19.3278V21.3272C19.5 21.4418 19.4766 21.5511 19.4719 21.6605H27.75C28.9922 21.6605 30 20.541 30 19.1612C30 15.9381 27.6516 13.3295 24.75 13.3295Z" fill="#1400FF"/>
</svg>
