<svg width="100" height="100" viewBox="0 0 100 100" fill="none" xmlns="http://www.w3.org/2000/svg">
<path d="M57.8125 74.9963H42.1875C39.5898 74.9963 37.5 72.9062 37.5 70.3082V37.4908H20.3711C16.8945 37.4908 15.1562 33.291 17.6172 30.8297L47.3242 1.09879C48.7891 -0.366265 51.1914 -0.366265 52.6562 1.09879L82.3828 30.8297C84.8438 33.291 83.1055 37.4908 79.6289 37.4908H62.5V70.3082C62.5 72.9062 60.4102 74.9963 57.8125 74.9963ZM100 73.4336V95.3118C100 97.9099 97.9102 100 95.3125 100H4.6875C2.08984 100 0 97.9099 0 95.3118V73.4336C0 70.8356 2.08984 68.7454 4.6875 68.7454H31.25V70.3082C31.25 76.3442 36.1523 81.2473 42.1875 81.2473H57.8125C63.8477 81.2473 68.75 76.3442 68.75 70.3082V68.7454H95.3125C97.9102 68.7454 100 70.8356 100 73.4336ZM75.7812 90.6236C75.7812 88.4749 74.0234 86.7168 71.875 86.7168C69.7266 86.7168 67.9688 88.4749 67.9688 90.6236C67.9688 92.7724 69.7266 94.5304 71.875 94.5304C74.0234 94.5304 75.7812 92.7724 75.7812 90.6236ZM88.2812 90.6236C88.2812 88.4749 86.5234 86.7168 84.375 86.7168C82.2266 86.7168 80.4688 88.4749 80.4688 90.6236C80.4688 92.7724 82.2266 94.5304 84.375 94.5304C86.5234 94.5304 88.2812 92.7724 88.2812 90.6236Z" fill="#4839A4"/>
</svg>
