<svg width="100" height="100" viewBox="0 0 100 100" fill="none" xmlns="http://www.w3.org/2000/svg">
<path d="M39.0625 31.0261H46.2793V64.0632C46.2793 64.4929 46.6309 64.8444 47.0605 64.8444H52.9199C53.3496 64.8444 53.7012 64.4929 53.7012 64.0632V31.0261H60.9375C61.5918 31.0261 61.9531 30.2741 61.5527 29.7663L50.6152 15.9187C50.5422 15.8253 50.4488 15.7498 50.3422 15.6978C50.2356 15.6459 50.1186 15.6189 50 15.6189C49.8814 15.6189 49.7644 15.6459 49.6578 15.6978C49.5512 15.7498 49.4578 15.8253 49.3848 15.9187L38.4473 29.7565C38.0469 30.2741 38.4082 31.0261 39.0625 31.0261ZM85.7422 61.1335H79.8828C79.4531 61.1335 79.1016 61.4851 79.1016 61.9147V76.9538H20.8984V61.9147C20.8984 61.4851 20.5469 61.1335 20.1172 61.1335H14.2578C13.8281 61.1335 13.4766 61.4851 13.4766 61.9147V81.2507C13.4766 82.9792 14.873 84.3757 16.6016 84.3757H83.3984C85.127 84.3757 86.5234 82.9792 86.5234 81.2507V61.9147C86.5234 61.4851 86.1719 61.1335 85.7422 61.1335Z" fill="#957878"/>
</svg>
