<svg width="40" height="60" viewBox="0 0 40 60" fill="none" xmlns="http://www.w3.org/2000/svg">
<path d="M23.3333 15.9375V0H2.5C1.11458 0 0 1.25391 0 2.8125V57.1875C0 58.7461 1.11458 60 2.5 60H37.5C38.8854 60 40 58.7461 40 57.1875V18.75H25.8333C24.4583 18.75 23.3333 17.4844 23.3333 15.9375ZM30 43.5938C30 44.3672 29.4375 45 28.75 45H11.25C10.5625 45 10 44.3672 10 43.5938V42.6562C10 41.8828 10.5625 41.25 11.25 41.25H28.75C29.4375 41.25 30 41.8828 30 42.6562V43.5938ZM30 36.0938C30 36.8672 29.4375 37.5 28.75 37.5H11.25C10.5625 37.5 10 36.8672 10 36.0938V35.1562C10 34.3828 10.5625 33.75 11.25 33.75H28.75C29.4375 33.75 30 34.3828 30 35.1562V36.0938ZM30 27.6562V28.5938C30 29.3672 29.4375 30 28.75 30H11.25C10.5625 30 10 29.3672 10 28.5938V27.6562C10 26.8828 10.5625 26.25 11.25 26.25H28.75C29.4375 26.25 30 26.8828 30 27.6562ZM40 14.2852V15H26.6667V0H27.3021C27.9688 0 28.6042 0.292969 29.0729 0.820312L39.2708 12.3047C39.7396 12.832 40 13.5469 40 14.2852Z" fill="white"/>
</svg>
