<svg width="31" height="28" viewBox="0 0 31 28" fill="none" xmlns="http://www.w3.org/2000/svg">
<path d="M24.025 11.8668C20.1694 11.8668 17.05 15.2785 17.05 19.4954C17.05 23.7123 20.1694 27.124 24.025 27.124C27.8806 27.124 31 23.7123 31 19.4954C31 15.2785 27.8806 11.8668 24.025 11.8668ZM27.125 19.8291C27.125 20.1099 26.9119 20.343 26.6552 20.343H23.7198C23.4631 20.343 23.25 20.1099 23.25 19.8291V15.7711C23.25 15.4904 23.4631 15.2573 23.7198 15.2573H24.3302C24.5869 15.2573 24.8 15.4904 24.8 15.7711V18.6478H26.6552C26.9119 18.6478 27.125 18.8809 27.125 19.1616V19.8291ZM15.5 19.4954C15.5 18.0226 15.8245 16.6294 16.3816 15.3897C15.9941 15.3102 15.5969 15.2573 15.19 15.2573H14.3811C13.3058 15.7976 12.1094 16.1049 10.85 16.1049C9.59062 16.1049 8.39906 15.7976 7.31891 15.2573H6.51C2.91594 15.2573 0 18.4465 0 22.3773V24.5811C0 25.985 1.04141 27.124 2.325 27.124H19.1377C16.9434 25.4341 15.5 22.6475 15.5 19.4954ZM10.85 13.562C14.2745 13.562 17.05 10.5265 17.05 6.78101C17.05 3.03556 14.2745 0 10.85 0C7.42547 0 4.65 3.03556 4.65 6.78101C4.65 10.5265 7.42547 13.562 10.85 13.562Z" fill="#2400FF"/>
</svg>
