<svg width="40" height="40" viewBox="0 0 40 40" fill="none" xmlns="http://www.w3.org/2000/svg">
<path d="M18.75 22.6562H14.5312C14.4484 22.6562 14.3689 22.6892 14.3103 22.7478C14.2517 22.8064 14.2188 22.8859 14.2188 22.9688V24.8438C14.2188 24.9266 14.2517 25.0061 14.3103 25.0647C14.3689 25.1233 14.4484 25.1562 14.5312 25.1562H18.75V29.375C18.75 29.4579 18.7829 29.5374 18.8415 29.596C18.9001 29.6546 18.9796 29.6875 19.0625 29.6875H20.9375C21.0204 29.6875 21.0999 29.6546 21.1585 29.596C21.2171 29.5374 21.25 29.4579 21.25 29.375V25.1562H25.4688C25.5516 25.1562 25.6311 25.1233 25.6897 25.0647C25.7483 25.0061 25.7812 24.9266 25.7812 24.8438V22.9688C25.7812 22.8859 25.7483 22.8064 25.6897 22.7478C25.6311 22.6892 25.5516 22.6562 25.4688 22.6562H21.25V18.4375C21.25 18.3546 21.2171 18.2751 21.1585 18.2165C21.0999 18.1579 21.0204 18.125 20.9375 18.125H19.0625C18.9796 18.125 18.9001 18.1579 18.8415 18.2165C18.7829 18.2751 18.75 18.3546 18.75 18.4375V22.6562ZM33.3828 11.2773C33.6172 11.5117 33.75 11.8281 33.75 12.1602V36.25C33.75 36.9414 33.1914 37.5 32.5 37.5H7.5C6.80859 37.5 6.25 36.9414 6.25 36.25V3.75C6.25 3.05859 6.80859 2.5 7.5 2.5H24.0898C24.4219 2.5 24.7422 2.63281 24.9766 2.86719L33.3828 11.2773ZM30.8672 12.7344L23.5156 5.38281V12.7344H30.8672Z" fill="#350C77"/>
</svg>
