<svg width="100" height="100" viewBox="0 0 100 100" fill="none" xmlns="http://www.w3.org/2000/svg">
<path fill-rule="evenodd" clip-rule="evenodd" d="M9.375 6.25C10.2038 6.25 10.9987 6.57924 11.5847 7.16529C12.1708 7.75134 12.5 8.5462 12.5 9.375V90.625C12.5 91.4538 12.1708 92.2487 11.5847 92.8347C10.9987 93.4208 10.2038 93.75 9.375 93.75C8.5462 93.75 7.75134 93.4208 7.16529 92.8347C6.57924 92.2487 6.25 91.4538 6.25 90.625V9.375C6.25 8.5462 6.57924 7.75134 7.16529 7.16529C7.75134 6.57924 8.5462 6.25 9.375 6.25Z" fill="#4839A4"/>
<path d="M18.75 43.75C18.75 42.0924 19.4085 40.5027 20.5806 39.3306C21.7527 38.1585 23.3424 37.5 25 37.5H87.5C89.1576 37.5 90.7473 38.1585 91.9194 39.3306C93.0915 40.5027 93.75 42.0924 93.75 43.75V56.25C93.75 57.9076 93.0915 59.4973 91.9194 60.6694C90.7473 61.8415 89.1576 62.5 87.5 62.5H25C23.3424 62.5 21.7527 61.8415 20.5806 60.6694C19.4085 59.4973 18.75 57.9076 18.75 56.25V43.75Z" fill="#4839A4"/>
</svg>
