<svg width="35" height="35" viewBox="0 0 35 35" fill="none" xmlns="http://www.w3.org/2000/svg">
<path fill-rule="evenodd" clip-rule="evenodd" d="M16.9213 0.153868C17.0976 0.0531957 17.297 0.000244141 17.5 0.000244141C17.703 0.000244141 17.9024 0.0531957 18.0787 0.153868L34.412 9.4872C34.5906 9.5892 34.739 9.73658 34.8423 9.91442C34.9455 10.0923 34.9999 10.2942 35 10.4999V12.1799C35 22.7545 27.9883 32.0505 17.8197 34.9532C17.6107 35.0127 17.3893 35.0127 17.1803 34.9532C12.2313 33.5392 7.87749 30.5517 4.77767 26.4427C1.67784 22.3337 0.000700805 17.3269 0 12.1799L0 10.4999C6.63298e-05 10.2942 0.0544863 10.0923 0.157746 9.91442C0.261006 9.73658 0.409437 9.5892 0.588 9.4872L16.9213 0.153868ZM16.5013 24.9922L26.5767 12.3945L24.7567 10.9385L16.1653 21.6742L10.08 16.6039L8.58667 18.3959L16.5013 24.9922Z" fill="#A0D24D"/>
</svg>
