<svg width="25" height="25" viewBox="0 0 25 25" fill="none" xmlns="http://www.w3.org/2000/svg">
<path d="M14.4531 18.7463H10.5469C9.89746 18.7463 9.375 18.2239 9.375 17.5745V9.37134H5.09277C4.22363 9.37134 3.78906 8.32153 4.4043 7.7063L11.8311 0.274658C12.1973 -0.0915527 12.7979 -0.0915527 13.1641 0.274658L20.5957 7.7063C21.2109 8.32153 20.7764 9.37134 19.9072 9.37134H15.625V17.5745C15.625 18.2239 15.1025 18.7463 14.4531 18.7463ZM25 18.3557V23.8245C25 24.4739 24.4775 24.9963 23.8281 24.9963H1.17188C0.522461 24.9963 0 24.4739 0 23.8245V18.3557C0 17.7063 0.522461 17.1838 1.17188 17.1838H7.8125V17.5745C7.8125 19.0833 9.03809 20.3088 10.5469 20.3088H14.4531C15.9619 20.3088 17.1875 19.0833 17.1875 17.5745V17.1838H23.8281C24.4775 17.1838 25 17.7063 25 18.3557ZM18.9453 22.6526C18.9453 22.1155 18.5059 21.676 17.9688 21.676C17.4316 21.676 16.9922 22.1155 16.9922 22.6526C16.9922 23.1897 17.4316 23.6292 17.9688 23.6292C18.5059 23.6292 18.9453 23.1897 18.9453 22.6526ZM22.0703 22.6526C22.0703 22.1155 21.6309 21.676 21.0938 21.676C20.5566 21.676 20.1172 22.1155 20.1172 22.6526C20.1172 23.1897 20.5566 23.6292 21.0938 23.6292C21.6309 23.6292 22.0703 23.1897 22.0703 22.6526Z" fill="#AE8D8D"/>
</svg>
